<?xml version="1.0" standalone="no"?>
<!DOCTYPE svg PUBLIC "-//W3C//DTD SVG 20010904//EN"
 "http://www.w3.org/TR/2001/REC-SVG-20010904/DTD/svg10.dtd">
<svg version="1.0" xmlns="http://www.w3.org/2000/svg"
 width="536.000000pt" height="536.000000pt" viewBox="0 0 536.000000 536.000000"
 preserveAspectRatio="xMidYMid meet">
<metadata>
Created by potrace 1.14, written by Peter Selinger 2001-2017
</metadata>
<g transform="translate(0.000000,536.000000) scale(0.100000,-0.100000)"
fill="#000000" stroke="none">
<path d="M3001 3775 c-196 -43 -352 -127 -492 -265 -129 -126 -221 -287 -271
-471 -19 -71 -23 -109 -23 -239 0 -187 20 -279 95 -437 l49 -103 -232 -1
c-312 0 -373 -7 -403 -43 -35 -40 -33 -99 5 -137 29 -29 30 -29 163 -31 73 -2
250 -3 394 -3 l260 0 77 -53 c136 -94 298 -158 448 -178 27 -4 49 -9 49 -12 0
-3 -20 -39 -44 -81 -100 -169 -119 -241 -92 -333 11 -38 31 -72 63 -108 62
-70 108 -90 203 -90 88 0 156 27 206 81 18 19 125 196 239 394 114 198 239
412 278 475 136 223 158 266 185 353 l27 87 192 -192 193 -193 0 608 c0 334
-3 607 -8 607 -4 0 -90 -83 -192 -185 l-184 -184 -26 77 c-15 42 -42 109 -62
147 -129 254 -392 448 -690 509 -96 20 -317 20 -407 1z m355 -566 c130 -48
221 -141 264 -270 92 -271 -97 -553 -382 -573 -180 -12 -343 85 -426 253 -36
72 -37 79 -37 181 0 102 1 109 37 181 41 82 106 155 177 197 105 61 252 74
367 31z"/>
<path d="M3134 3084 c-37 -39 -42 -69 -19 -114 34 -66 103 -79 157 -31 28 25
33 36 33 76 0 40 -5 51 -33 76 -47 42 -94 40 -138 -7z"/>
<path d="M2943 2950 c-48 -19 -73 -92 -48 -140 51 -98 194 -66 195 44 0 30 -7
45 -34 72 -35 35 -68 42 -113 24z"/>
<path d="M3354 2926 c-26 -26 -34 -42 -34 -71 0 -51 53 -105 103 -105 75 0
127 83 93 148 -37 71 -107 83 -162 28z"/>
<path d="M3018 2683 c-91 -58 -48 -193 61 -193 82 0 125 127 62 184 -28 26
-90 30 -123 9z"/>
<path d="M3271 2669 c-74 -74 -11 -194 92 -175 44 8 67 35 74 84 14 103 -95
163 -166 91z"/>
<path d="M1075 3523 c-11 -3 -32 -17 -47 -31 -40 -37 -40 -102 1 -143 l29 -29
561 0 c413 0 567 3 586 12 30 13 55 55 55 90 0 41 -36 86 -77 97 -38 11 -1065
14 -1108 4z"/>
<path d="M4650 3411 c-6 -13 -10 -224 -10 -615 0 -527 2 -596 16 -610 16 -17
41 -20 68 -10 14 6 16 70 16 624 0 554 -2 618 -16 624 -31 12 -63 6 -74 -13z"/>
<path d="M687 3066 c-51 -19 -66 -41 -67 -98 0 -40 4 -50 31 -72 l31 -26 383
0 383 0 30 25 c36 31 46 66 32 111 -22 67 -32 69 -430 71 -282 2 -363 0 -393
-11z"/>
<path d="M1808 3073 c-41 -7 -78 -56 -78 -105 0 -30 7 -46 29 -69 29 -29 31
-29 139 -29 101 0 111 2 135 24 50 46 42 137 -15 167 -22 12 -164 21 -210 12z"/>
<path d="M1060 2663 c-14 -2 -37 -16 -52 -31 -23 -21 -28 -34 -28 -73 0 -40 4
-51 31 -73 28 -24 38 -26 129 -26 115 0 143 10 166 58 21 44 6 102 -33 127
-26 18 -160 29 -213 18z"/>
<path d="M1583 2659 c-74 -22 -98 -115 -44 -170 l29 -29 267 0 c289 0 310 3
333 55 23 50 8 102 -37 132 -23 16 -55 18 -271 20 -135 1 -259 -2 -277 -8z"/>
<path d="M862 2250 c-56 -13 -82 -46 -82 -101 0 -40 4 -51 31 -73 l31 -26 299
0 c336 0 348 2 369 65 16 49 -2 100 -43 123 -28 15 -67 17 -302 19 -148 1
-285 -2 -303 -7z"/>
</g>
</svg>
